<svg width="20" height="20" viewBox="0 0 20 20" fill="none" xmlns="http://www.w3.org/2000/svg">
<path fill-rule="evenodd" clip-rule="evenodd" d="M9.37374 2.91687C6.01928 2.91687 3.29996 5.63619 3.29996 8.99067C3.29996 12.3451 6.01928 15.0644 9.37374 15.0644C12.7282 15.0644 15.4475 12.3451 15.4475 8.99067C15.4475 5.63619 12.7282 2.91687 9.37374 2.91687ZM2.04996 8.99067C2.04996 4.94585 5.32892 1.66687 9.37374 1.66687C13.4186 1.66687 16.6975 4.94585 16.6975 8.99067C16.6975 13.0355 13.4186 16.3144 9.37374 16.3144C5.32892 16.3144 2.04996 13.0355 2.04996 8.99067Z" fill="#717784"/>
<path fill-rule="evenodd" clip-rule="evenodd" d="M13.9466 13.0397L18.6262 17.7072L17.7434 18.5922L13.0638 13.9247L13.9466 13.0397Z" fill="#717784"/>
</svg>
