<svg width="20" height="20" viewBox="0 0 20 20" fill="none" xmlns="http://www.w3.org/2000/svg">
<path fill-rule="evenodd" clip-rule="evenodd" d="M3.09026 6.16962C3.4082 6.03519 3.7749 6.18396 3.90932 6.50189L5.00629 9.09638L7.58326 8.0068C7.9012 7.87239 8.2679 8.02114 8.40233 8.33904C8.53675 8.65704 8.388 9.02371 8.07005 9.15813L4.91741 10.491C4.59948 10.6255 4.23278 10.4767 4.09836 10.1588L2.758 6.98867C2.62357 6.67074 2.77234 6.30404 3.09026 6.16962Z" fill="#525866"/>
<path fill-rule="evenodd" clip-rule="evenodd" d="M10.7624 4.71988C7.89009 4.71988 5.55539 7.00797 5.4832 9.85325C5.47445 10.1982 5.18762 10.4709 4.84255 10.4622C4.49749 10.4534 4.22485 10.1666 4.2336 9.8215C4.32299 6.29818 7.21239 3.46988 10.7624 3.46988C14.366 3.46988 17.2915 6.39541 17.2915 9.99891C17.2915 13.6097 14.3655 16.528 10.7624 16.528C8.52867 16.528 6.56351 15.41 5.38176 13.708C5.18489 13.4244 5.25516 13.035 5.53869 12.8382C5.82223 12.6412 6.21167 12.7115 6.40854 12.9951C7.36759 14.3763 8.957 15.278 10.7624 15.278C13.6761 15.278 16.0415 12.9183 16.0415 9.99891C16.0415 7.08577 13.6756 4.71988 10.7624 4.71988Z" fill="#525866"/>
</svg>
